<svg width="210" height="64" viewBox="0 0 210 64" fill="none" xmlns="http://www.w3.org/2000/svg">
<path d="M32.48 46H38.38C42.77 46 47.65 48.5 47.65 54.59C47.65 60.47 42.77 63.18 38.38 63.18H32.48V46ZM34.89 61.07H37.89C42.04 61.07 45.07 58.69 45.07 54.59C45.07 50.34 42.07 48.09 37.89 48.09H34.89V61.07Z" fill="#231F20"/>
<path d="M55.15 46.01H52.75V63.19H55.15V46.01Z" fill="#231F20"/>
<path d="M61.83 63.19H59.16L66.61 46H68.79L76.17 63.18H73.46L71.71 59H63.55L61.83 63.19ZM64.4 56.86H70.83L67.63 48.8L64.4 56.86Z" fill="#231F20"/>
<path d="M89.06 59.21H89.11L94.19 46.01H97.92V63.19H95.52V48.82H95.47L89.77 63.19H88.24L82.56 48.82H82.51V63.19H80.18V46.01H83.92L89.06 59.21Z" fill="#231F20"/>
<path d="M112.1 63.63C109.705 63.63 107.408 62.6786 105.715 60.9852C104.021 59.2917 103.07 56.9949 103.07 54.6C103.07 52.2051 104.021 49.9083 105.715 48.2148C107.408 46.5214 109.705 45.57 112.1 45.57C117.34 45.57 121.23 49.21 121.23 54.57C121.26 55.7711 121.043 56.9654 120.593 58.0793C120.143 59.1933 119.469 60.2031 118.613 61.0466C117.758 61.89 116.738 62.549 115.618 62.9831C114.498 63.4171 113.301 63.6168 112.1 63.57V63.63ZM112.1 47.62C108.1 47.62 105.62 50.75 105.62 54.52C105.62 58.29 108.17 61.41 112.1 61.41C116.03 61.41 118.63 58.35 118.63 54.52C118.63 50.69 116.11 47.62 112.1 47.62Z" fill="#231F20"/>
<path d="M138.41 59.75H138.46V46.01H140.87V63.19H137.83L128.75 49.16H128.7V63.19H126.3V46.01H129.43L138.41 59.75Z" fill="#231F20"/>
<path d="M146.84 46H152.74C157.13 46 162.01 48.5 162.01 54.59C162.01 60.47 157.13 63.18 152.74 63.18H146.84V46ZM149.24 61.07H152.24C156.39 61.07 159.42 58.69 159.42 54.59C159.42 50.34 156.42 48.09 152.24 48.09H149.24V61.07Z" fill="#231F20"/>
<path d="M175.65 49.19C175.257 48.6786 174.749 48.2671 174.166 47.9891C173.584 47.7111 172.945 47.5743 172.3 47.59C170.75 47.59 168.95 48.44 168.95 50.38C168.95 52.32 170.53 52.76 172.47 53.38C174.77 54.11 177.47 54.98 177.47 58.38C177.47 61.95 174.58 63.6 171.52 63.6C170.452 63.628 169.391 63.4182 168.414 62.9858C167.436 62.5535 166.568 61.9093 165.87 61.1L167.73 59.52C168.163 60.1362 168.738 60.6394 169.407 60.9874C170.075 61.3354 170.817 61.518 171.57 61.52C173.17 61.52 175.02 60.62 175.02 58.58C175.02 56.54 173.12 55.93 170.94 55.26C168.76 54.59 166.47 53.58 166.47 50.43C166.47 47 169.53 45.52 172.37 45.52C173.284 45.502 174.193 45.67 175.04 46.0138C175.888 46.3576 176.657 46.87 177.3 47.52L175.65 49.19Z" fill="#231F20"/>
<path d="M42.47 1.12H48.22V28.44H65.13V33.4H42.47V1.12Z" fill="#231F20"/>
<path d="M124.31 28.87C130.59 28.87 134.87 23.94 134.87 17.17C134.87 10.63 130.68 5.56001 124.31 5.56001C117.94 5.56001 113.79 10.63 113.79 17.17C113.79 23.94 118.08 28.87 124.31 28.87ZM124.31 0.580017C133.88 0.580017 140.84 6.99001 140.84 17.17C140.84 27.08 133.84 33.94 124.31 33.94C114.78 33.94 107.91 27.08 107.91 17.17C107.91 6.99001 114.91 0.580017 124.31 0.580017Z" fill="#231F20"/>
<path d="M79.24 6.12002H87C90.19 6.12002 92.51 7.69002 92.51 10.79C92.51 13.89 90.19 15.47 87 15.47H79.26L79.24 6.12002ZM98.24 10.79C98.24 5.33002 94.47 1.14001 87.7 1.14001H73.59V33.39H79.24V20.45H85.67L91.25 33.38H97.91L91.45 20C93.4653 19.4849 95.2434 18.2949 96.4879 16.6282C97.7325 14.9615 98.3685 12.9187 98.29 10.84" fill="#231F20"/>
<path d="M167.06 7.99999C166.34 7.15426 165.447 6.47289 164.441 6.00192C163.436 5.53095 162.341 5.28135 161.23 5.26999C158.63 5.26999 155.63 6.52 155.63 9.62C155.63 12.53 158.09 13.38 161.68 14.5C165.76 15.76 170.96 17.5 170.96 23.79C170.96 30.6 165.63 33.92 159.4 33.92C155.27 33.92 151.01 32.35 148.5 29.39L152.5 25.62C153.328 26.6927 154.388 27.5647 155.6 28.1707C156.812 28.7767 158.145 29.1012 159.5 29.12C162.14 29.12 165.23 27.82 165.23 24.41C165.23 21 161.92 20.15 157.93 18.9C153.94 17.65 149.93 15.8 149.93 9.89999C149.93 3.43999 155.8 0.569992 161.54 0.569992C164.923 0.550543 168.196 1.77072 170.74 3.99999L167.06 7.99999Z" fill="#231F20"/>
<path d="M26.93 33.38H33.12L20.45 1.14999H13.4L0.73999 33.38H6.85999L21.88 28.91V28.4H8.82999L16.93 7.24999L26.93 33.38Z" fill="#231F20"/>
<path d="M183.07 33.38H176.88L189.55 1.14999H196.6L209.26 33.38H203.14L188.12 28.91V28.4H201.17L193.07 7.24999L183.07 33.38Z" fill="#231F20"/>
</svg>
